<svg id="svg" version="1.1" xmlns="http://www.w3.org/2000/svg" xmlns:xlink="http://www.w3.org/1999/xlink" width="400" height="400" viewBox="0, 0, 400,400"><g id="svgg"><path id="path0" d="M119.280 70.080 C 118.934 70.426,118.800 73.212,118.800 80.096 C 118.800 95.319,121.280 93.996,92.713 94.013 C 75.292 94.023,70.862 94.130,70.300 94.557 C 69.669 95.036,69.600 96.001,69.600 104.397 C 69.600 117.839,68.864 118.800,58.573 118.800 C 50.318 118.800,51.200 117.649,51.200 128.417 C 51.200 136.160,51.079 138.055,50.403 140.875 C 49.723 143.712,49.605 145.597,49.603 153.713 C 49.600 164.075,49.442 165.002,47.348 166.943 L 46.208 168.000 36.784 168.000 C 29.988 168.000,27.226 168.134,26.880 168.480 C 26.198 169.162,26.182 279.484,26.864 280.981 L 27.328 282.000 45.884 282.000 C 70.469 282.000,68.400 280.812,68.400 294.932 L 68.400 304.556 69.475 305.678 L 70.550 306.800 175.405 306.800 L 280.261 306.800 281.130 305.874 C 281.972 304.978,282.000 304.647,282.001 295.574 C 282.004 280.779,279.666 282.003,307.919 282.001 L 329.638 282.000 330.619 280.942 L 331.600 279.883 331.600 200.016 L 331.600 120.150 330.478 119.075 L 329.356 118.000 320.233 118.000 C 306.454 118.000,306.800 118.344,306.800 104.649 L 306.800 95.221 305.620 94.610 C 304.660 94.114,302.680 94.000,295.007 94.000 C 280.722 94.000,281.200 94.482,281.200 80.096 C 281.200 73.212,281.066 70.426,280.720 70.080 C 280.021 69.381,119.979 69.381,119.280 70.080 M115.631 118.369 L 116.800 119.538 116.800 141.538 L 116.800 163.538 115.556 164.783 L 114.312 166.027 104.656 165.898 C 96.128 165.785,94.790 165.678,93.200 164.987 C 91.561 164.274,90.437 164.204,80.600 164.202 C 64.874 164.199,65.600 163.519,65.600 178.246 C 65.600 185.175,65.467 187.973,65.120 188.320 C 64.383 189.057,52.393 188.975,50.587 188.220 L 49.200 187.641 49.200 178.633 C 49.200 170.065,49.244 169.541,50.100 167.912 C 50.956 166.284,51.010 165.644,51.200 154.800 C 51.455 140.276,50.703 141.600,58.695 141.600 L 64.962 141.600 66.281 140.322 L 67.600 139.043 67.600 129.668 L 67.600 120.293 69.100 118.747 L 70.600 117.201 92.531 117.200 L 114.462 117.200 115.631 118.369 M281.804 164.976 C 284.610 166.148,284.797 166.965,284.799 178.051 C 284.800 185.609,284.920 188.002,285.316 188.331 C 285.643 188.602,289.424 188.803,295.616 188.880 C 309.722 189.053,309.400 188.794,309.400 200.000 C 309.400 211.206,309.722 210.947,295.616 211.120 C 289.424 211.197,285.643 211.398,285.316 211.669 C 284.920 211.998,284.800 214.391,284.799 221.949 C 284.796 236.324,285.465 235.711,269.996 235.524 C 256.008 235.356,256.800 236.163,256.800 222.082 C 256.800 210.001,258.080 211.276,245.791 211.121 C 231.908 210.946,232.200 211.185,232.200 200.000 C 232.200 188.815,231.908 189.054,245.791 188.879 C 258.080 188.724,256.800 189.999,256.800 177.918 C 256.800 163.737,255.995 164.517,270.713 164.446 C 278.343 164.410,280.721 164.523,281.804 164.976 M90.313 166.221 C 91.131 166.563,92.295 167.317,92.900 167.896 L 94.000 168.950 94.000 178.198 C 94.000 190.014,92.720 188.747,104.800 188.887 C 118.923 189.050,118.600 188.790,118.600 200.000 C 118.600 211.210,118.923 210.950,104.800 211.113 C 96.227 211.212,94.937 211.310,94.500 211.890 C 94.132 212.377,94.000 215.100,93.999 222.176 C 93.996 236.152,94.572 235.600,80.000 235.600 C 65.441 235.600,66.004 236.136,66.001 222.274 C 66.000 210.128,66.691 211.207,58.886 211.169 C 47.856 211.115,47.600 210.867,47.600 200.230 C 47.600 190.207,47.384 190.406,58.269 190.402 C 64.644 190.400,64.757 190.385,65.969 189.364 L 67.200 188.329 67.200 178.945 C 67.200 165.160,66.777 165.604,79.913 165.601 C 87.068 165.600,89.119 165.722,90.313 166.221 M166.294 233.706 L 167.800 235.212 168.000 245.621 C 168.166 254.287,168.301 256.094,168.800 256.409 C 169.776 257.025,187.812 256.909,188.331 256.284 C 188.602 255.957,188.803 252.176,188.880 245.984 C 189.053 231.878,188.794 232.200,200.000 232.200 C 211.206 232.200,210.947 231.878,211.120 245.984 C 211.197 252.176,211.398 255.957,211.669 256.284 C 211.998 256.680,214.375 256.800,221.869 256.800 C 236.197 256.800,235.355 255.987,235.524 269.996 C 235.711 285.502,236.372 284.796,221.654 284.799 C 206.856 284.801,207.600 285.510,207.600 271.410 C 207.600 259.305,208.356 260.400,200.000 260.400 C 191.644 260.400,192.400 259.305,192.400 271.410 C 192.400 285.510,193.144 284.801,178.346 284.799 C 163.774 284.796,164.400 285.421,164.400 270.893 C 164.400 264.012,164.266 261.226,163.920 260.880 C 162.991 259.951,144.122 260.224,143.614 261.174 C 143.362 261.644,143.200 265.637,143.200 271.360 C 143.200 285.436,143.864 284.800,129.167 284.800 C 114.514 284.800,115.204 285.486,115.201 270.914 C 115.199 256.112,114.540 256.800,128.737 256.800 C 135.727 256.800,138.422 256.668,138.906 256.300 C 139.481 255.864,139.580 254.526,139.686 245.800 C 139.861 231.273,139.164 231.919,154.494 232.087 L 164.788 232.200 166.294 233.706 " stroke="none" fill="#94f4f4" fill-rule="evenodd"></path><path id="path1" d="M114.242 40.635 C 114.109 40.982,114.000 46.561,114.000 53.033 L 114.000 64.800 89.400 64.800 L 64.800 64.800 64.800 77.000 L 64.800 89.200 56.100 89.247 C 51.315 89.273,47.175 89.266,46.900 89.230 C 46.198 89.139,46.178 89.496,46.073 103.900 L 46.000 114.000 33.855 114.000 L 21.710 114.000 21.703 114.900 C 21.700 115.395,21.675 126.465,21.648 139.500 L 21.600 163.200 10.800 163.200 L 0.000 163.200 0.000 237.000 L 0.000 310.800 10.800 310.800 L 21.600 310.800 21.647 322.700 C 21.673 329.245,21.673 334.735,21.647 334.900 C 21.621 335.065,27.090 335.200,33.800 335.200 L 46.000 335.200 46.067 342.300 C 46.103 346.205,46.148 350.179,46.167 351.131 C 46.223 354.064,45.180 353.929,68.313 353.982 C 79.670 354.008,89.010 354.077,89.068 354.135 C 89.126 354.193,89.225 360.981,89.287 369.220 L 89.400 384.200 91.200 384.470 C 93.552 384.824,306.448 384.824,308.800 384.470 L 310.600 384.200 310.713 369.220 C 310.775 360.981,310.874 354.193,310.932 354.135 C 310.990 354.077,320.330 354.008,331.687 353.982 C 354.820 353.929,353.777 354.064,353.833 351.131 C 353.852 350.179,353.897 346.205,353.933 342.300 L 354.000 335.200 366.200 335.200 C 372.910 335.200,378.379 335.065,378.353 334.900 C 378.327 334.735,378.327 329.245,378.353 322.700 L 378.400 310.800 389.200 310.800 L 400.000 310.800 400.000 237.000 L 400.000 163.200 389.200 163.200 L 378.400 163.200 378.352 139.500 C 378.325 126.465,378.300 115.395,378.297 114.900 L 378.290 114.000 366.145 114.000 L 354.000 114.000 353.927 103.900 C 353.822 89.496,353.802 89.139,353.100 89.230 C 352.825 89.266,348.685 89.273,343.900 89.247 L 335.200 89.200 335.200 77.000 L 335.200 64.800 310.600 64.800 L 286.000 64.800 286.000 53.033 C 286.000 46.561,285.891 40.982,285.758 40.635 C 285.387 39.667,114.613 39.667,114.242 40.635 M283.086 67.713 C 283.724 68.351,283.821 69.544,284.000 78.973 C 284.258 92.598,282.978 91.193,295.162 91.224 C 300.353 91.237,305.500 91.434,306.600 91.662 C 307.700 91.890,313.516 92.194,319.524 92.338 L 330.447 92.600 331.215 93.600 C 331.922 94.521,331.983 95.358,331.991 104.217 L 332.000 113.833 333.715 115.517 L 335.430 117.200 342.045 117.200 C 348.639 117.200,348.664 117.203,349.630 118.232 L 350.600 119.264 350.710 141.599 L 350.819 163.934 352.224 165.167 L 353.628 166.400 363.370 166.400 C 372.365 166.400,373.184 166.459,374.056 167.165 L 375.000 167.929 375.105 236.265 C 375.181 285.540,375.087 304.900,374.767 305.674 C 374.064 307.380,372.672 307.600,362.571 307.600 L 353.262 307.600 352.050 308.811 L 350.839 310.023 350.719 319.980 C 350.601 329.892,350.596 329.942,349.630 330.969 L 348.661 332.000 329.910 332.000 C 305.832 332.000,307.600 331.226,307.600 341.764 C 307.600 348.155,307.571 348.389,306.635 349.478 L 305.669 350.600 200.000 350.600 L 94.331 350.600 93.365 349.478 C 92.429 348.389,92.400 348.155,92.400 341.764 C 92.400 331.226,94.168 332.000,70.090 332.000 L 51.339 332.000 50.370 330.969 C 49.404 329.942,49.399 329.892,49.281 319.980 L 49.161 310.023 47.950 308.811 L 46.738 307.600 37.429 307.600 C 27.949 307.600,25.957 307.348,25.339 306.072 C 25.160 305.702,24.896 300.720,24.752 295.000 C 24.609 289.280,24.302 283.700,24.070 282.600 C 23.501 279.906,23.438 169.600,24.003 167.564 C 24.627 165.318,25.244 165.200,36.349 165.200 C 46.117 165.200,46.272 165.187,47.084 164.300 C 47.888 163.422,47.915 162.854,48.194 140.800 C 48.359 127.703,48.641 117.898,48.864 117.481 C 49.523 116.248,51.040 116.000,57.904 116.000 L 64.556 116.000 65.678 114.925 L 66.800 113.850 66.800 103.747 C 66.800 93.645,66.800 93.645,67.765 92.522 L 68.730 91.400 91.544 91.290 L 114.357 91.181 115.178 90.136 C 115.956 89.148,116.000 88.571,116.000 79.372 C 116.000 69.207,116.194 67.818,117.694 67.213 C 119.665 66.418,282.281 66.910,283.086 67.713 M69.855 168.255 L 68.800 169.309 68.800 179.001 C 68.800 192.136,68.908 192.000,58.495 192.000 C 49.930 192.000,50.400 191.524,50.400 200.187 L 50.400 206.742 51.454 207.571 C 52.422 208.332,53.038 208.400,59.000 208.400 C 68.853 208.400,68.800 208.328,68.800 221.710 C 68.800 233.951,67.632 232.800,80.056 232.800 C 92.353 232.800,91.200 233.953,91.200 221.654 C 91.200 207.830,90.641 208.400,104.179 208.400 L 113.850 208.400 114.925 207.278 C 116.602 205.528,116.602 194.472,114.925 192.722 L 113.850 191.600 104.179 191.600 C 90.630 191.600,91.200 192.186,91.200 178.249 L 91.200 168.858 90.146 168.029 C 89.150 167.246,88.593 167.200,80.001 167.200 L 70.909 167.200 69.855 168.255 M260.470 168.126 C 259.628 169.021,259.600 169.354,259.600 178.346 C 259.600 192.170,260.159 191.600,246.621 191.600 L 236.950 191.600 235.875 192.722 C 234.803 193.841,234.800 193.860,234.800 200.047 L 234.800 206.250 235.922 207.325 L 237.044 208.400 246.668 208.400 C 260.157 208.400,259.600 207.826,259.600 221.710 C 259.600 233.951,258.432 232.800,270.856 232.800 C 283.153 232.800,282.000 233.953,282.000 221.654 C 282.000 207.830,281.441 208.400,294.979 208.400 L 304.650 208.400 305.725 207.278 C 306.796 206.160,306.800 206.136,306.800 200.000 C 306.800 193.864,306.796 193.840,305.725 192.722 L 304.650 191.600 294.979 191.600 C 281.435 191.600,282.000 192.179,282.000 178.290 C 282.000 166.049,283.168 167.200,270.744 167.200 C 261.431 167.200,261.331 167.209,260.470 168.126 M143.475 235.922 L 142.400 237.044 142.400 246.340 L 142.400 255.636 143.382 256.618 L 144.364 257.600 153.800 257.600 L 163.236 257.600 164.218 256.618 L 165.200 255.636 165.200 246.340 L 165.200 237.044 164.125 235.922 L 163.050 234.800 153.800 234.800 L 144.550 234.800 143.475 235.922 M192.654 235.944 L 191.558 237.087 191.679 246.580 C 191.831 258.540,191.122 257.600,200.000 257.600 C 208.878 257.600,208.169 258.540,208.321 246.580 L 208.442 237.087 207.346 235.944 L 206.250 234.800 200.000 234.800 L 193.750 234.800 192.654 235.944 M118.870 260.526 C 117.472 262.014,117.520 279.810,118.926 281.130 C 120.414 282.528,138.210 282.480,139.530 281.074 C 140.775 279.749,140.897 261.374,139.669 260.262 C 138.334 259.054,120.034 259.286,118.870 260.526 M167.862 260.331 C 166.654 261.666,166.886 279.966,168.126 281.130 C 169.614 282.528,187.410 282.480,188.730 281.074 C 189.975 279.749,190.097 261.374,188.869 260.262 C 187.702 259.206,168.824 259.268,167.862 260.331 M211.062 260.331 C 209.854 261.666,210.086 279.966,211.326 281.130 C 212.814 282.528,230.610 282.480,231.930 281.074 C 233.328 279.586,233.280 261.790,231.874 260.470 C 230.549 259.225,212.174 259.103,211.062 260.331 " stroke="none" fill="#0c7cbc" fill-rule="evenodd"></path><path id="path2" d="M117.694 67.213 C 116.194 67.818,116.000 69.207,116.000 79.372 C 116.000 88.571,115.956 89.148,115.178 90.136 L 114.357 91.181 91.544 91.290 L 68.730 91.400 67.765 92.522 C 66.800 93.645,66.800 93.645,66.800 103.747 L 66.800 113.850 65.678 114.925 L 64.556 116.000 57.904 116.000 C 51.040 116.000,49.523 116.248,48.864 117.481 C 48.641 117.898,48.359 127.703,48.194 140.800 C 47.915 162.854,47.888 163.422,47.084 164.300 C 46.272 165.187,46.117 165.200,36.349 165.200 C 25.244 165.200,24.627 165.318,24.003 167.564 C 23.438 169.600,23.501 279.906,24.070 282.600 C 24.302 283.700,24.609 289.280,24.752 295.000 C 24.896 300.720,25.160 305.702,25.339 306.072 C 25.957 307.348,27.949 307.600,37.429 307.600 L 46.738 307.600 47.950 308.811 L 49.161 310.023 49.281 319.980 C 49.399 329.892,49.404 329.942,50.370 330.969 L 51.339 332.000 70.090 332.000 C 94.168 332.000,92.400 331.226,92.400 341.764 C 92.400 348.155,92.429 348.389,93.365 349.478 L 94.331 350.600 200.000 350.600 L 305.669 350.600 306.635 349.478 C 307.571 348.389,307.600 348.155,307.600 341.764 C 307.600 331.226,305.832 332.000,329.910 332.000 L 348.661 332.000 349.630 330.969 C 350.596 329.942,350.601 329.892,350.719 319.980 L 350.839 310.023 352.050 308.811 L 353.262 307.600 362.571 307.600 C 372.672 307.600,374.064 307.380,374.767 305.674 C 375.087 304.900,375.181 285.540,375.105 236.265 L 375.000 167.929 374.056 167.165 C 373.184 166.459,372.365 166.400,363.370 166.400 L 353.628 166.400 352.224 165.167 L 350.819 163.934 350.710 141.599 L 350.600 119.264 349.630 118.232 C 348.664 117.203,348.639 117.200,342.045 117.200 L 335.430 117.200 333.715 115.517 L 332.000 113.833 331.991 104.217 C 331.983 95.358,331.922 94.521,331.215 93.600 L 330.447 92.600 319.524 92.338 C 313.516 92.194,307.700 91.890,306.600 91.662 C 305.500 91.434,300.353 91.237,295.162 91.224 C 282.978 91.193,284.258 92.598,284.000 78.973 C 283.821 69.544,283.724 68.351,283.086 67.713 C 282.281 66.910,119.665 66.418,117.694 67.213 M281.074 69.670 C 281.993 70.532,282.000 70.617,282.000 80.239 L 282.000 89.939 283.048 91.184 C 285.013 93.519,285.445 93.600,295.926 93.600 C 304.998 93.600,305.547 93.643,306.546 94.429 L 307.600 95.258 307.600 104.669 L 307.600 114.080 308.960 115.440 L 310.320 116.800 319.807 116.800 L 329.294 116.800 330.847 118.353 L 332.400 119.906 332.400 200.140 L 332.400 280.373 330.987 281.787 L 329.573 283.200 307.617 283.200 L 285.662 283.200 284.431 284.431 L 283.200 285.662 283.200 295.217 L 283.200 304.772 281.959 306.186 L 280.717 307.600 175.400 307.600 L 70.083 307.600 68.841 306.186 L 67.600 304.772 67.600 295.305 L 67.600 285.838 66.322 284.519 L 65.043 283.200 46.349 283.200 L 27.654 283.200 26.727 281.900 L 25.800 280.600 25.696 224.959 L 25.592 169.318 26.425 168.259 L 27.258 167.200 36.754 167.200 L 46.250 167.200 47.276 166.100 C 49.147 164.094,49.199 163.752,49.214 153.326 C 49.224 146.245,49.392 142.655,49.800 140.800 C 50.202 138.972,50.376 135.438,50.386 128.900 C 50.404 117.041,49.694 118.000,58.457 118.000 L 64.914 118.000 66.857 116.057 L 68.800 114.114 68.800 104.589 C 68.800 96.286,68.885 94.969,69.462 94.331 C 70.088 93.640,71.311 93.600,91.882 93.600 C 115.725 93.600,114.848 93.685,116.952 91.184 L 118.000 89.939 118.000 80.295 C 118.000 70.944,118.026 70.623,118.870 69.726 L 119.739 68.800 199.944 68.800 L 280.148 68.800 281.074 69.670 M259.768 165.954 C 257.421 167.385,257.200 168.488,257.200 178.760 C 257.200 190.782,258.411 189.600,246.100 189.601 C 232.714 189.604,232.799 189.536,232.801 200.080 C 232.804 210.445,232.745 210.400,246.180 210.400 C 258.398 210.400,257.200 209.222,257.200 221.240 C 257.200 235.289,256.709 234.796,270.720 234.799 C 284.729 234.801,284.000 235.511,284.000 221.874 C 284.000 213.004,284.044 212.452,284.829 211.454 L 285.658 210.400 295.282 210.400 C 308.850 210.400,308.800 210.439,308.800 200.000 C 308.800 189.561,308.850 189.600,295.282 189.600 L 285.658 189.600 284.829 188.546 C 284.044 187.548,284.000 186.996,284.000 178.126 C 284.000 164.489,284.729 165.199,270.720 165.201 C 261.916 165.203,260.884 165.274,259.768 165.954 M68.841 167.814 L 67.600 169.228 67.600 178.766 L 67.600 188.305 66.324 189.553 L 65.048 190.800 58.485 190.800 C 48.217 190.800,47.999 190.991,48.001 199.989 C 48.004 209.672,48.728 210.396,58.411 210.399 C 67.136 210.401,66.400 209.421,66.400 221.039 C 66.400 235.279,65.927 234.800,80.000 234.800 C 94.073 234.800,93.600 235.279,93.600 221.039 C 93.600 209.206,92.343 210.400,104.789 210.399 C 118.057 210.396,118.000 210.441,118.000 200.000 C 118.000 189.559,118.057 189.604,104.789 189.601 C 92.337 189.600,93.600 190.813,93.600 178.852 L 93.600 169.350 92.500 168.324 C 90.494 166.452,90.150 166.400,79.868 166.400 L 70.083 166.400 68.841 167.814 M90.146 168.029 L 91.200 168.858 91.200 178.249 C 91.200 192.186,90.630 191.600,104.179 191.600 L 113.850 191.600 114.925 192.722 C 116.602 194.472,116.602 205.528,114.925 207.278 L 113.850 208.400 104.179 208.400 C 90.641 208.400,91.200 207.830,91.200 221.654 C 91.200 233.953,92.353 232.800,80.056 232.800 C 67.632 232.800,68.800 233.951,68.800 221.710 C 68.800 208.328,68.853 208.400,59.000 208.400 C 53.038 208.400,52.422 208.332,51.454 207.571 L 50.400 206.742 50.400 200.187 C 50.400 191.524,49.930 192.000,58.495 192.000 C 68.908 192.000,68.800 192.136,68.800 179.001 L 68.800 169.309 69.855 168.255 L 70.909 167.200 80.001 167.200 C 88.593 167.200,89.150 167.246,90.146 168.029 M281.074 168.070 C 281.991 168.931,282.000 169.033,282.000 178.290 C 282.000 192.179,281.435 191.600,294.979 191.600 L 304.650 191.600 305.725 192.722 C 306.796 193.840,306.800 193.864,306.800 200.000 C 306.800 206.136,306.796 206.160,305.725 207.278 L 304.650 208.400 294.979 208.400 C 281.441 208.400,282.000 207.830,282.000 221.654 C 282.000 233.953,283.153 232.800,270.856 232.800 C 258.432 232.800,259.600 233.951,259.600 221.710 C 259.600 207.826,260.157 208.400,246.668 208.400 L 237.044 208.400 235.922 207.325 L 234.800 206.250 234.800 200.047 C 234.800 193.860,234.803 193.841,235.875 192.722 L 236.950 191.600 246.621 191.600 C 260.159 191.600,259.600 192.170,259.600 178.346 C 259.600 166.047,258.447 167.200,270.744 167.200 C 279.849 167.200,280.178 167.228,281.074 168.070 M142.919 233.584 C 140.537 235.036,140.400 235.731,140.400 246.318 C 140.400 258.444,141.628 257.200,129.656 257.200 C 115.393 257.200,116.000 256.610,116.000 270.474 C 116.000 284.832,115.168 284.000,129.526 284.000 C 143.398 284.000,142.800 284.618,142.800 270.275 C 142.800 258.375,141.530 259.600,153.862 259.600 C 166.398 259.600,165.200 258.401,165.200 270.946 C 165.200 284.756,164.417 284.000,178.726 284.000 C 192.598 284.000,192.000 284.618,192.000 270.275 C 192.000 258.568,191.220 259.600,200.070 259.600 C 208.757 259.600,208.000 258.575,208.000 270.344 C 208.000 284.607,207.410 284.000,221.274 284.000 C 235.608 284.000,234.801 284.792,234.799 270.720 C 234.796 256.692,235.311 257.200,221.102 257.200 C 209.175 257.200,210.400 258.453,210.400 246.249 C 210.400 232.719,210.465 232.803,200.000 232.803 C 189.527 232.803,189.600 232.708,189.600 246.318 C 189.600 258.471,190.921 257.200,178.291 257.200 C 165.929 257.200,167.200 258.482,167.199 246.011 C 167.196 232.280,167.726 232.799,153.720 232.801 C 144.984 232.803,144.095 232.867,142.919 233.584 M164.125 235.922 L 165.200 237.044 165.200 246.340 L 165.200 255.636 164.218 256.618 L 163.236 257.600 153.800 257.600 L 144.364 257.600 143.382 256.618 L 142.400 255.636 142.400 246.340 L 142.400 237.044 143.475 235.922 L 144.550 234.800 153.800 234.800 L 163.050 234.800 164.125 235.922 M207.346 235.944 L 208.442 237.087 208.321 246.580 C 208.169 258.540,208.878 257.600,200.000 257.600 C 191.122 257.600,191.831 258.540,191.679 246.580 L 191.558 237.087 192.654 235.944 L 193.750 234.800 200.000 234.800 L 206.250 234.800 207.346 235.944 M139.669 260.262 C 140.897 261.374,140.775 279.749,139.530 281.074 C 138.210 282.480,120.414 282.528,118.926 281.130 C 117.520 279.810,117.472 262.014,118.870 260.526 C 120.034 259.286,138.334 259.054,139.669 260.262 M188.869 260.262 C 190.097 261.374,189.975 279.749,188.730 281.074 C 187.410 282.480,169.614 282.528,168.126 281.130 C 166.886 279.966,166.654 261.666,167.862 260.331 C 168.824 259.268,187.702 259.206,188.869 260.262 M231.874 260.470 C 233.280 261.790,233.328 279.586,231.930 281.074 C 230.610 282.480,212.814 282.528,211.326 281.130 C 210.086 279.966,209.854 261.666,211.062 260.331 C 212.174 259.103,230.549 259.225,231.874 260.470 " stroke="none" fill="#1ccce4" fill-rule="evenodd"></path><path id="path3" d="M69.100 118.747 L 67.600 120.293 67.600 129.668 L 67.600 139.043 66.281 140.322 L 64.962 141.600 58.695 141.600 C 50.703 141.600,51.455 140.276,51.200 154.800 C 51.010 165.644,50.956 166.284,50.100 167.912 C 49.244 169.541,49.200 170.065,49.200 178.633 L 49.200 187.641 50.587 188.220 C 52.393 188.975,64.383 189.057,65.120 188.320 C 65.467 187.973,65.600 185.175,65.600 178.246 C 65.600 163.519,64.874 164.199,80.600 164.202 C 90.437 164.204,91.561 164.274,93.200 164.987 C 94.790 165.678,96.128 165.785,104.656 165.898 L 114.312 166.027 115.556 164.783 L 116.800 163.538 116.800 141.538 L 116.800 119.538 115.631 118.369 L 114.462 117.200 92.531 117.200 L 70.600 117.201 69.100 118.747 " stroke="none" fill="#ecfcfc" fill-rule="evenodd"></path><path id="path4" d="M118.870 69.726 C 118.026 70.623,118.000 70.944,118.000 80.295 L 118.000 89.939 116.952 91.184 C 114.848 93.685,115.725 93.600,91.882 93.600 C 71.311 93.600,70.088 93.640,69.462 94.331 C 68.885 94.969,68.800 96.286,68.800 104.589 L 68.800 114.114 66.857 116.057 L 64.914 118.000 58.457 118.000 C 49.694 118.000,50.404 117.041,50.386 128.900 C 50.376 135.438,50.202 138.972,49.800 140.800 C 49.392 142.655,49.224 146.245,49.214 153.326 C 49.199 163.752,49.147 164.094,47.276 166.100 L 46.250 167.200 36.754 167.200 L 27.258 167.200 26.425 168.259 L 25.592 169.318 25.696 224.959 L 25.800 280.600 26.727 281.900 L 27.654 283.200 46.349 283.200 L 65.043 283.200 66.322 284.519 L 67.600 285.838 67.600 295.305 L 67.600 304.772 68.841 306.186 L 70.083 307.600 175.400 307.600 L 280.717 307.600 281.959 306.186 L 283.200 304.772 283.200 295.217 L 283.200 285.662 284.431 284.431 L 285.662 283.200 307.617 283.200 L 329.573 283.200 330.987 281.787 L 332.400 280.373 332.400 200.140 L 332.400 119.906 330.847 118.353 L 329.294 116.800 319.807 116.800 L 310.320 116.800 308.960 115.440 L 307.600 114.080 307.600 104.669 L 307.600 95.258 306.546 94.429 C 305.547 93.643,304.998 93.600,295.926 93.600 C 285.445 93.600,285.013 93.519,283.048 91.184 L 282.000 89.939 282.000 80.239 C 282.000 70.617,281.993 70.532,281.074 69.670 L 280.148 68.800 199.944 68.800 L 119.739 68.800 118.870 69.726 M280.720 70.080 C 281.066 70.426,281.200 73.212,281.200 80.096 C 281.200 94.482,280.722 94.000,295.007 94.000 C 302.680 94.000,304.660 94.114,305.620 94.610 L 306.800 95.221 306.800 104.649 C 306.800 118.344,306.454 118.000,320.233 118.000 L 329.356 118.000 330.478 119.075 L 331.600 120.150 331.600 200.016 L 331.600 279.883 330.619 280.942 L 329.638 282.000 307.919 282.001 C 279.666 282.003,282.004 280.779,282.001 295.574 C 282.000 304.647,281.972 304.978,281.130 305.874 L 280.261 306.800 175.405 306.800 L 70.550 306.800 69.475 305.678 L 68.400 304.556 68.400 294.932 C 68.400 280.812,70.469 282.000,45.884 282.000 L 27.328 282.000 26.864 280.981 C 26.182 279.484,26.198 169.162,26.880 168.480 C 27.226 168.134,29.988 168.000,36.784 168.000 L 46.208 168.000 47.348 166.943 C 49.442 165.002,49.600 164.075,49.603 153.713 C 49.605 145.597,49.723 143.712,50.403 140.875 C 51.079 138.055,51.200 136.160,51.200 128.417 C 51.200 117.649,50.318 118.800,58.573 118.800 C 68.864 118.800,69.600 117.839,69.600 104.397 C 69.600 96.001,69.669 95.036,70.300 94.557 C 70.862 94.130,75.292 94.023,92.713 94.013 C 121.280 93.996,118.800 95.319,118.800 80.096 C 118.800 73.212,118.934 70.426,119.280 70.080 C 119.979 69.381,280.021 69.381,280.720 70.080 M260.200 164.688 C 257.198 165.419,256.800 166.968,256.800 177.918 C 256.800 189.999,258.080 188.724,245.791 188.879 C 231.908 189.054,232.200 188.815,232.200 200.000 C 232.200 211.185,231.908 210.946,245.791 211.121 C 258.080 211.276,256.800 210.001,256.800 222.082 C 256.800 236.163,256.008 235.356,269.996 235.524 C 285.465 235.711,284.796 236.324,284.799 221.949 C 284.800 214.391,284.920 211.998,285.316 211.669 C 285.643 211.398,289.424 211.197,295.616 211.120 C 309.722 210.947,309.400 211.206,309.400 200.000 C 309.400 188.794,309.722 189.053,295.616 188.880 C 289.424 188.803,285.643 188.602,285.316 188.331 C 284.920 188.002,284.800 185.609,284.799 178.051 C 284.796 163.786,285.408 164.376,270.713 164.446 C 265.371 164.472,260.640 164.581,260.200 164.688 M281.613 165.807 C 283.833 166.955,284.000 167.818,284.000 178.126 C 284.000 186.996,284.044 187.548,284.829 188.546 L 285.658 189.600 295.282 189.600 C 308.850 189.600,308.800 189.561,308.800 200.000 C 308.800 210.439,308.850 210.400,295.282 210.400 L 285.658 210.400 284.829 211.454 C 284.044 212.452,284.000 213.004,284.000 221.874 C 284.000 235.511,284.729 234.801,270.720 234.799 C 256.709 234.796,257.200 235.289,257.200 221.240 C 257.200 209.222,258.398 210.400,246.180 210.400 C 232.745 210.400,232.804 210.445,232.801 200.080 C 232.799 189.536,232.714 189.604,246.100 189.601 C 258.411 189.600,257.200 190.782,257.200 178.760 C 257.200 164.711,256.709 165.204,270.720 165.201 C 278.628 165.200,280.658 165.313,281.613 165.807 M69.719 166.384 C 67.343 167.833,67.200 168.547,67.200 178.945 L 67.200 188.329 65.969 189.364 C 64.757 190.385,64.644 190.400,58.269 190.402 C 47.384 190.406,47.600 190.207,47.600 200.230 C 47.600 210.867,47.856 211.115,58.886 211.169 C 66.691 211.207,66.000 210.128,66.001 222.274 C 66.004 236.136,65.441 235.600,80.000 235.600 C 94.572 235.600,93.996 236.152,93.999 222.176 C 94.000 215.100,94.132 212.377,94.500 211.890 C 94.937 211.310,96.227 211.212,104.800 211.113 C 118.923 210.950,118.600 211.210,118.600 200.000 C 118.600 188.790,118.923 189.050,104.800 188.887 C 92.720 188.747,94.000 190.014,94.000 178.198 L 94.000 168.950 92.900 167.896 C 90.708 165.797,89.593 165.600,79.913 165.601 C 71.779 165.603,70.888 165.671,69.719 166.384 M90.526 166.849 C 91.007 167.096,91.895 167.759,92.500 168.324 L 93.600 169.350 93.600 178.852 C 93.600 190.813,92.337 189.600,104.789 189.601 C 118.057 189.604,118.000 189.559,118.000 200.000 C 118.000 210.441,118.057 210.396,104.789 210.399 C 92.343 210.400,93.600 209.206,93.600 221.039 C 93.600 235.279,94.073 234.800,80.000 234.800 C 65.927 234.800,66.400 235.279,66.400 221.039 C 66.400 209.421,67.136 210.401,58.411 210.399 C 48.728 210.396,48.004 209.672,48.001 199.989 C 47.999 190.991,48.217 190.800,58.485 190.800 L 65.048 190.800 66.324 189.553 L 67.600 188.305 67.600 178.766 L 67.600 169.228 68.841 167.814 L 70.083 166.400 79.868 166.400 C 86.316 166.400,89.951 166.553,90.526 166.849 M142.558 232.800 C 139.914 234.130,139.822 234.546,139.686 245.800 C 139.580 254.526,139.481 255.864,138.906 256.300 C 138.422 256.668,135.727 256.800,128.737 256.800 C 114.540 256.800,115.199 256.112,115.201 270.914 C 115.204 285.486,114.514 284.800,129.167 284.800 C 143.864 284.800,143.200 285.436,143.200 271.360 C 143.200 265.637,143.362 261.644,143.614 261.174 C 144.122 260.224,162.991 259.951,163.920 260.880 C 164.266 261.226,164.400 264.012,164.400 270.893 C 164.400 285.421,163.774 284.796,178.346 284.799 C 193.144 284.801,192.400 285.510,192.400 271.410 C 192.400 259.305,191.644 260.400,200.000 260.400 C 208.356 260.400,207.600 259.305,207.600 271.410 C 207.600 285.510,206.856 284.801,221.654 284.799 C 236.372 284.796,235.711 285.502,235.524 269.996 C 235.355 255.987,236.197 256.800,221.869 256.800 C 214.375 256.800,211.998 256.680,211.669 256.284 C 211.398 255.957,211.197 252.176,211.120 245.984 C 210.947 231.878,211.206 232.200,200.000 232.200 C 188.794 232.200,189.053 231.878,188.880 245.984 C 188.803 252.176,188.602 255.957,188.331 256.284 C 187.812 256.909,169.776 257.025,168.800 256.409 C 168.301 256.094,168.166 254.287,168.000 245.621 L 167.800 235.212 166.294 233.706 L 164.788 232.200 154.494 232.087 C 144.766 231.980,144.110 232.020,142.558 232.800 M164.438 233.419 C 167.019 234.755,167.197 235.564,167.199 246.011 C 167.200 258.482,165.929 257.200,178.291 257.200 C 190.921 257.200,189.600 258.471,189.600 246.318 C 189.600 232.708,189.527 232.803,200.000 232.803 C 210.465 232.803,210.400 232.719,210.400 246.249 C 210.400 258.453,209.175 257.200,221.102 257.200 C 235.311 257.200,234.796 256.692,234.799 270.720 C 234.801 284.792,235.608 284.000,221.274 284.000 C 207.410 284.000,208.000 284.607,208.000 270.344 C 208.000 258.575,208.757 259.600,200.070 259.600 C 191.220 259.600,192.000 258.568,192.000 270.275 C 192.000 284.618,192.598 284.000,178.726 284.000 C 164.417 284.000,165.200 284.756,165.200 270.946 C 165.200 258.401,166.398 259.600,153.862 259.600 C 141.530 259.600,142.800 258.375,142.800 270.275 C 142.800 284.618,143.398 284.000,129.526 284.000 C 115.168 284.000,116.000 284.832,116.000 270.474 C 116.000 256.610,115.393 257.200,129.656 257.200 C 141.628 257.200,140.400 258.444,140.400 246.318 C 140.400 232.254,139.858 232.804,153.720 232.801 C 161.534 232.800,163.454 232.911,164.438 233.419 " stroke="none" fill="#84f8dc" fill-rule="evenodd"></path></g></svg>